PathFileType	4	(X/Y/Z)	walk-thru1-4-TP.trc
DataRate	CameraRate	NumFrames	NumMarkers	Units	OrigDataRate	OrigDataStartFrame	OrigNumFrames
120.00	120.00	       4	60	mm	120.00	373	       497
Frame#	Time	Top.Head			Front.Head			Rear.Head			Jaw			C7			R.Clavicle			L.Clavicle			R.Shoulder			L.Shoulder			R.Scapula			L.Scapula			R.Scap.Inf			R.Biceps.Lateral			R.Elbow			R.Elbow.Medial			R.Forearm			R.Ulna			R.Radius			R.Wrist			R.Thumb.M1			R.Thumb.M2			R.Thumb.M3			R.Finger3.M1			R.Finger3.M2			R.Finger3.M3			L.Biceps.Lateral			L.Elbow			L.Elbow.Medial			L.Forearm			L.Ulna			L.Radius			L.Wrist			L.Thumb.M1			L.Thumb.M2			L.Thumb.M3			L.Finger3.M1			L.Finger3.M2			L.Finger3.M3			V.Sacral			R.ASIS			L.ASIS			R.Thigh			R.Thigh.Front			R.Knee			R.Knee.Medial			R.Shank			R.Ankle			R.Ankle.Medial			R.Heel			R.Toe			R.MedFoot			L.Thigh			L.Knee			L.Knee.Medial			L.Shank			L.Ankle			L.Ankle.Medial			L.Heel			L.Toe			L.MedFoot			V_mid_ASIS			V_R_Knee_JC			V_L_Knee_JC			V_R_Elbow_JC			V_L_Elbow_JC			V_R_Ankle_JC			V_L_Ankle_JC			V_R_Wrist_JC			V_L_Wrist_JC			V_R_ScaTrpz_1stMC_JC			V_R_1stMC_1stPP_JC			V_R_1stPP_1stDP_JC			V_R_LunCap_3rdMC_JC			V_R_3rdMC_3rdPP_JC			V_R_3rdPP_3rdMP_JC			V_R_3rdMP_3rdDP_JC			V_L_ScaTrpz_1stMC_JC			V_L_1stMC_1stPP_JC			V_L_1stPP_1stDP_JC			V_L_LunCap_3rdMC_JC			V_L_3rdMC_3rdPP_JC			V_L_3rdPP_3rdMP_JC			V_L_3rdMP_3rdPP_JC			V_ROOT_JC			V_R_Hip_JC			V_L_Hip_JC			V_R_GlenHum_JC			V_L_GlenHum_JC			V_ForeHead_Ctr			V_Vertex			V_Sagit_Lambdoid_Suture			V_R_FrontoTemp			V_L_FrontoTemporal			V_R_ParietalOccip			V_L_ParietalOcciptal			V_R_Temporal			V_L_Temporal			V_mid_FrontRearHead			V_mid_RLGlenHumCtrs			V_C7_vert			V_C1_vert			V_Mid_Hip			
		X1	Y1	Z1	X2	Y2	Z2	X3	Y3	Z3	X4	Y4	Z4	X5	Y5	Z5	X6	Y6	Z6	X7	Y7	Z7	X8	Y8	Z8	X9	Y9	Z9	X10	Y10	Z10	X11	Y11	Z11	X12	Y12	Z12	X13	Y13	Z13	X14	Y14	Z14	X15	Y15	Z15	X16	Y16	Z16	X17	Y17	Z17	X18	Y18	Z18	X19	Y19	Z19	X20	Y20	Z20	X21	Y21	Z21	X22	Y22	Z22	X23	Y23	Z23	X24	Y24	Z24	X25	Y25	Z25	X26	Y26	Z26	X27	Y27	Z27	X28	Y28	Z28	X29	Y29	Z29	X30	Y30	Z30	X31	Y31	Z31	X32	Y32	Z32	X33	Y33	Z33	X34	Y34	Z34	X35	Y35	Z35	X36	Y36	Z36	X37	Y37	Z37	X38	Y38	Z38	X39	Y39	Z39	X40	Y40	Z40	X41	Y41	Z41	X42	Y42	Z42	X43	Y43	Z43	X44	Y44	Z44	X45	Y45	Z45	X46	Y46	Z46	X47	Y47	Z47	X48	Y48	Z48	X49	Y49	Z49	X50	Y50	Z50	X51	Y51	Z51	X52	Y52	Z52	X53	Y53	Z53	X54	Y54	Z54	X55	Y55	Z55	X56	Y56	Z56	X57	Y57	Z57	X58	Y58	Z58	X59	Y59	Z59	X60	Y60	Z60	

373	3.100	1251.76660	85.61555	1560.78479	1348.20862	75.35702	1455.59973	1136.35107	86.02166	1485.05420	1309.88904	60.16101	1318.09021	1113.65039	70.38529	1376.33801	1183.02490	-46.03262	1285.32642	1216.40930	167.01422	1291.82239	1125.33435	-118.49097	1284.59790	1175.11389	265.94186	1291.17761	1055.03906	-10.64198	1303.09387	1071.99072	171.76378	1301.85022	1005.29071	10.26694	1221.66101	1121.42407	-172.40819	1143.76074	1065.92371	-188.18489	988.04364	1042.35632	-114.77459	976.48956	1132.71106	-187.10312	902.94867	1090.00562	-209.51274	823.19006	1151.34241	-170.06216	767.82928	1138.70776	-210.77892	734.45026	1169.86377	-173.32695	713.69397	1177.29419	-156.83755	679.18323	1182.61951	-145.36281	639.85828	1145.64624	-222.35585	656.12659	1140.28870	-201.61316	608.00439	1125.12366	-181.86002	575.22925	1166.50098	327.66971	1147.80554	1119.07190	347.49112	1004.39270	1087.20435	272.69287	996.06689	1202.44604	318.04190	942.78656	1201.61755	355.99939	852.04883	1246.98877	292.45389	813.31946	1263.97876	337.84473	787.33026	1279.62134	293.29587	778.95129	1290.42334	269.11932	745.60333	1298.20667	257.53543	695.47900	1293.71179	330.98547	704.37646	1298.71704	322.96417	665.15015	1293.44604	304.18195	624.59857	991.45172	65.52041	909.76990	1185.49194	-82.41100	969.04034	1175.76257	232.89273	956.10150	1259.06567	-131.22386	597.56696	1358.76575	-64.97848	528.80981	1316.04895	-102.06219	462.48428	1334.41504	12.42166	462.23645	1299.74060	-51.96613	291.28189	1194.71790	-52.18990	89.10591	1233.69421	32.65846	104.74833	1148.80090	17.39728	65.86913	1330.96680	-57.17441	54.63747	1294.97900	-6.99026	81.59418	1149.78491	240.24646	577.23486	1159.43872	201.96999	441.56244	1180.58313	85.60919	428.85873	1151.00879	137.03522	247.70364	1068.81873	146.23497	62.85415	1086.05200	58.56911	85.44277	1010.49280	97.59367	41.65956	1214.29443	113.45999	37.01598	1159.21130	78.98081	61.23299																																																																																																																															
374	3.108	1256.59229	85.35551	1560.17712	1351.51990	74.64741	1455.50708	1140.45117	87.14288	1483.71216	1315.00671	60.68777	1316.45947	1117.76306	69.59133	1374.86218	1187.83569	-47.28251	1284.84021	1221.34497	165.87518	1291.61877	1130.34448	-118.70116	1283.26941	1179.33142	264.04718	1290.67480	1060.03357	-10.43806	1302.09473	1076.87891	170.51135	1300.80811	1010.88959	9.83590	1221.05994	1125.28186	-172.45299	1142.83740	1070.06152	-188.64307	987.47876	1047.65930	-115.45329	976.38318	1136.92981	-186.99275	902.55261	1093.18591	-209.52980	822.57135	1154.57813	-170.05769	766.94690	1141.23694	-209.80103	733.65674	1171.69519	-173.45651	713.22168	1180.80493	-158.25670	678.59442	1184.28503	-144.57303	638.96027	1147.53467	-222.52751	656.22406	1141.85840	-202.07335	607.53101	1126.30505	-182.02780	574.94263	1170.07690	326.97980	1147.30408	1122.78345	346.88614	1004.39551	1091.16846	271.17783	995.16589	1206.77197	318.41846	942.54559	1206.01526	355.26257	851.78827	1250.58142	292.37384	812.80273	1267.87476	337.56656	788.08459	1281.19238	292.74289	778.14581	1292.89001	267.90714	744.76141	1300.75964	256.63791	694.72137	1297.21130	331.53793	704.09045	1302.87170	323.34335	664.72577	1296.77441	304.36505	624.14252	995.60352	64.88657	910.03070	1190.39331	-82.99669	968.48602	1179.21240	232.34187	955.25427	1263.59937	-132.00743	597.24390	1364.17102	-64.42332	528.44385	1321.35168	-100.33213	463.07370	1339.37756	14.00546	462.43729	1309.98450	-52.15841	292.03845	1211.19165	-52.69769	85.65178	1250.01453	31.98825	101.95251	1165.08643	16.00952	61.60188	1348.10254	-58.98694	54.62327	1311.09363	-8.45472	81.23517	1152.73718	239.17279	576.74200	1160.84509	202.22473	441.10730	1182.20862	84.95829	428.41867	1152.18335	136.02170	247.55922	1068.81689	146.15837	63.26604	1085.46094	58.61109	84.75763	1010.51593	97.54819	41.92713	1213.45142	114.11906	37.39604	1158.36951	77.48770	62.99599																																																																																																																															
375	3.117	1260.88818	84.51701	1559.60217	1356.64099	74.26598	1454.82141	1144.46228	85.93964	1483.79736	1320.14221	59.67316	1316.29578	1123.16101	69.85522	1374.63403	1192.03735	-48.19094	1284.13391	1225.41479	166.88492	1290.83496	1134.02637	-118.54975	1283.56897	1183.89478	264.06348	1290.12390	1064.32617	-10.47305	1301.67322	1080.11792	171.59901	1301.05066	1015.18719	8.93546	1220.01587	1129.03345	-172.85864	1142.37476	1073.08728	-188.87749	987.46216	1050.75525	-115.04179	975.55457	1139.97900	-187.39162	901.58551	1096.57324	-209.12207	822.43286	1157.04529	-170.36636	766.03772	1144.77563	-210.10690	733.19525	1176.97803	-175.93828	713.18866	1183.63342	-158.03513	678.17572	1186.50281	-143.89813	637.53522	1151.40137	-221.64668	655.43982	1145.04639	-202.00696	606.41022	1130.86365	-180.91188	574.74536	1174.04358	326.87802	1146.99744	1126.77197	346.47501	1003.85242	1095.47583	270.74857	994.65234	1210.40613	317.45932	942.29095	1209.30432	355.05692	851.77216	1252.86060	292.31131	811.74872	1269.93909	336.56058	786.66882	1286.04346	292.47125	777.36603	1295.83728	267.38708	743.56531	1303.82556	256.82645	693.01245	1301.19324	331.33344	703.44403	1305.88501	324.17960	664.49261	1299.92957	305.95724	623.11823	1000.33539	65.33340	909.85883	1194.19861	-82.54719	968.24890	1181.41455	231.83510	955.14160	1267.76257	-130.20345	596.39648	1369.23901	-63.23639	529.18878	1327.29871	-99.73094	463.20758	1344.51855	14.20297	462.64566	1319.91016	-52.16198	292.12003	1227.91907	-53.47531	83.84184	1265.55945	30.43502	101.29556	1181.85291	12.97383	57.84311	1365.36853	-58.67538	55.91318	1327.08899	-8.74875	80.70915	1155.05029	238.89111	576.94720	1162.72571	202.53500	440.81766	1185.24634	85.42638	427.60812	1153.29333	136.63155	247.35307	1068.81689	146.15837	63.26604	1085.36243	58.29356	83.86637	1010.51593	97.54819	41.92713	1215.22913	112.71281	36.78893	1159.46533	79.23956	62.35306																																																																																																																															
376	3.125	1264.54065	84.44998	1558.92883	1360.53760	74.23392	1454.18530	1149.25208	85.92749	1482.46362	1325.00439	58.29217	1315.95154	1126.96069	70.04137	1374.43140	1196.16553	-47.97137	1283.73962	1230.03699	165.93097	1290.63818	1138.99170	-118.37358	1282.58142	1189.05481	264.66187	1289.86646	1068.19934	-11.77738	1301.47815	1084.68372	170.01811	1300.21924	1020.57367	9.09964	1219.78369	1133.71875	-173.36671	1142.23035	1076.51184	-189.41772	986.96045	1054.88477	-115.34476	975.29865	1143.91565	-187.26859	901.02466	1099.53516	-209.71843	821.91516	1160.09790	-170.45279	765.54205	1147.39441	-209.71597	732.39984	1178.75537	-175.94270	712.25171	1185.68750	-158.01723	676.63635	1189.59534	-143.79510	636.58386	1153.44214	-222.16292	654.40729	1148.02478	-201.95918	606.06317	1133.30359	-181.28091	574.02679	1177.88586	327.59003	1146.95239	1131.58594	345.51746	1003.08240	1097.90063	271.06461	995.41107	1214.33972	317.26379	940.74414	1211.94910	355.00598	850.33801	1256.78699	291.42505	810.53461	1275.76245	336.51993	786.44049	1288.22009	291.75165	777.09845	1300.24487	267.23990	742.43585	1305.76831	257.42181	691.25397	1305.20581	330.83841	703.57983	1309.62427	323.84872	664.14679	1304.98877	305.45358	622.51306	1005.24121	63.97266	909.66272	1199.26050	-83.81828	967.30975	1188.21130	232.36577	953.24139	1273.08862	-130.74225	596.21851	1374.01538	-62.39964	529.59760	1332.70972	-99.55280	463.44012	1349.23157	14.52842	462.51373	1330.38306	-52.12060	292.56689	1243.48035	-55.48647	81.52859	1279.37134	29.90054	99.80643	1197.56592	12.25539	54.57475	1382.15479	-59.24393	56.52584	1342.75842	-8.19176	80.55711	1157.71826	238.31386	576.27454	1164.95276	202.84689	440.93707	1186.87598	85.34812	427.45493	1154.90137	136.08865	247.17697	1068.84204	146.09167	63.32620	1085.75781	58.59798	83.27859	1010.56189	97.41508	42.01557	1214.82739	112.22765	36.48263	1159.41309	79.22697	62.31508																																																																																																																															
